<?xml version="1.0" encoding="UTF-8"?>
<svg version="1.1" xmlns="http://www.w3.org/2000/svg" width="512" height="512">
<path d="M0 0 C1.56368525 -0.00576172 1.56368525 -0.00576172 3.1589601 -0.01163983 C4.86715907 -0.01034011 4.86715907 -0.01034011 6.6098671 -0.00901413 C7.82468773 -0.01198525 9.03950837 -0.01495637 10.29114175 -0.01801753 C13.66015413 -0.02519052 17.0291155 -0.02787628 20.39813185 -0.028615 C24.03288435 -0.0304681 27.66762585 -0.03801671 31.30237198 -0.04475021 C39.24870623 -0.05832334 47.19503544 -0.06435659 55.14137936 -0.06876087 C60.10428792 -0.07152487 65.06719453 -0.0757625 70.03010178 -0.08026505 C83.77453234 -0.0924561 97.51896136 -0.10275592 111.26339722 -0.10614014 C112.58250995 -0.10646949 112.58250995 -0.10646949 113.92827143 -0.10680549 C115.25051373 -0.10713291 115.25051373 -0.10713291 116.59946799 -0.10746694 C118.38566955 -0.1079104 120.17187111 -0.10835696 121.95807266 -0.10880661 C122.84408756 -0.10902804 123.73010246 -0.10924947 124.6429663 -0.10947761 C138.99874705 -0.11342542 153.35447704 -0.13087965 167.71023819 -0.15416613 C182.45371375 -0.17788825 197.19716385 -0.19034237 211.94065881 -0.19150805 C220.21673234 -0.1924243 228.49273972 -0.19816397 236.76879501 -0.21632767 C243.81607953 -0.23174022 250.86327743 -0.23684229 257.9105756 -0.22858956 C261.50461351 -0.22468721 265.09847706 -0.22559223 268.69249344 -0.23964691 C272.59308612 -0.25476069 276.49343444 -0.24650705 280.39404678 -0.23606491 C281.5239232 -0.24412132 282.65379962 -0.25217772 283.81791472 -0.26047826 C292.99329867 -0.2030511 302.04605944 1.33810695 308.75592422 8.13142776 C313.60005536 15.14663322 314.90511386 20.80572961 314.90309525 29.25181961 C314.90677193 30.07714278 314.91044862 30.90246595 314.91423672 31.75279891 C314.92526263 34.52240675 314.92911557 37.29197706 314.93292618 40.06160355 C314.9391917 42.04594415 314.94583858 44.03028359 314.9528389 46.01462173 C314.97387264 52.53531961 314.98424122 59.0560177 314.99420547 65.57674026 C314.9982534 67.82265994 315.00237034 70.06857948 315.00655556 72.3144989 C315.02560637 82.86721417 315.03983717 93.41992244 315.04816753 103.9726516 C315.05793742 116.14752272 315.08425107 128.32221191 315.12466842 140.49701893 C315.15484685 149.91119227 315.16963808 159.3253135 315.17294854 168.73953426 C315.1752972 174.36031026 315.18423388 179.98089187 315.20940971 185.60161591 C315.23272526 190.89251568 315.23690954 196.18309357 315.22664833 201.47403145 C315.2261537 203.41136433 315.23245267 205.34871325 315.24620438 207.28599739 C315.39306935 229.21005966 315.39306935 229.21005966 307.44342422 238.06892776 C300.27836198 244.56178801 291.95015199 245.26928854 282.63473892 245.22908401 C281.9531548 245.2276719 281.27157067 245.22625978 280.56933248 245.22480488 C278.30417811 245.21912622 276.03911675 245.20643279 273.77399063 245.19392776 C272.14226316 245.18876991 270.51053381 245.18418176 268.87880325 245.18011856 C265.37358702 245.17107898 261.86838751 245.1597829 258.36318207 245.14726639 C252.81531964 245.12926492 247.26752592 245.12734886 241.71963882 245.12971878 C240.31290152 245.13027252 240.31290152 245.13027252 238.87774527 245.13083744 C235.01208877 245.1326014 231.14643255 245.13481167 227.28077626 245.13698387 C216.32048398 245.14223888 205.36063685 245.13247749 194.40045547 245.08015823 C185.6822983 245.03865308 176.96475409 245.02895659 168.24653184 245.05626869 C163.63763601 245.0694947 159.03001181 245.06671978 154.42125702 245.02522659 C150.08511819 244.98651544 145.75102907 244.99005176 141.41488075 245.02535057 C139.82865031 245.03087425 138.24227816 245.02116527 136.65625954 244.99466133 C127.83716723 244.75308726 127.83716723 244.75308726 119.87171936 248.07872391 C117.60038678 250.31916015 115.67029734 252.58422793 113.75592422 255.13142776 C112.66076466 256.36862631 111.55818032 257.59935671 110.44342422 258.81892776 C109.20949289 260.25233992 107.98107176 261.69050082 106.75592422 263.13142776 C100.03237536 271.03864636 93.24457314 278.85075013 86.20123672 286.47517776 C82.04087896 290.99441624 78.02906887 295.63321385 74.04889297 300.31111526 C68.22563056 307.14769758 62.30963279 313.86573103 56.21295547 320.45955276 C53.5982315 323.3029092 51.05193845 326.19714991 48.51764297 329.11189651 C46.33911621 331.60923207 44.1462248 334.09296591 41.94342422 336.56892776 C41.19447891 337.4132637 40.4455336 338.25759964 39.67389297 339.12752151 C37.08940343 341.82781303 36.22912141 342.09571477 32.44342422 342.38142776 C28.51533953 342.11511694 26.7994448 341.56624422 23.75592422 339.13142776 C21.1561105 335.41388687 21.48391635 331.40204507 21.51642227 327.04573441 C21.51440811 326.23388184 21.51239395 325.42202927 21.51031876 324.5855751 C21.50677732 322.82534564 21.50753533 321.06510345 21.5120945 319.30487633 C21.51769028 316.5180241 21.5085251 313.73158765 21.49489212 310.944767 C21.4577718 303.02234916 21.4392336 295.10007271 21.4505043 287.17757034 C21.45635591 282.32926141 21.43809338 277.48153801 21.4046154 272.63334846 C21.39666179 270.78700713 21.39793787 268.94060197 21.40863991 267.09427452 C21.42297009 264.51104071 21.40669501 261.92964785 21.38360977 259.34651566 C21.3953775 258.58531418 21.40714523 257.8241127 21.41926956 257.03984451 C21.34921748 253.03984766 20.90009837 251.30982344 18.35225296 248.15721512 C15.70654273 246.09289782 14.70153412 245.5084051 11.42779922 245.49470901 C10.62729141 245.47472855 9.8267836 245.45474808 9.00201797 245.43416214 C8.17830704 245.4373848 7.3545961 245.44060745 6.50592422 245.44392776 C-3.5488202 245.33969198 -12.17753717 244.84111116 -19.83782578 237.63142776 C-26.09176476 231.00961002 -27.70433619 223.36403612 -27.6250267 214.47896194 C-27.62970667 213.65682819 -27.63438665 212.83469443 -27.63920844 211.98764753 C-27.65108441 209.25871283 -27.64173045 206.53028723 -27.63225937 203.80134964 C-27.63632836 201.83435144 -27.64167208 199.86735553 -27.64818954 197.90036392 C-27.66182991 192.57602487 -27.65657801 187.25186083 -27.64705229 181.92751884 C-27.63943871 176.34635458 -27.64650602 170.76520495 -27.65121078 165.18404007 C-27.65666338 155.81279698 -27.64948971 146.44162491 -27.63518906 137.07039261 C-27.61886353 126.24751262 -27.62415239 115.4248022 -27.64066827 104.60192633 C-27.65429724 95.29720789 -27.65619589 85.99254039 -27.64835227 76.68781519 C-27.64368352 71.13594567 -27.64302895 65.58415577 -27.65296173 60.03229141 C-27.66164961 54.81192936 -27.65557613 49.59178521 -27.63827896 44.37144661 C-27.63432386 42.45950494 -27.63543137 40.54754483 -27.64206696 38.63561058 C-27.65031131 36.01812688 -27.6399264 33.40133375 -27.6250267 30.78389359 C-27.63171887 30.03416763 -27.63841103 29.28444167 -27.64530599 28.51199675 C-27.56018945 20.75968265 -25.37709218 13.054139 -20.24407578 7.13142776 C-13.64079726 2.36363684 -8.17332037 0.01133923 0 0 Z " fill="#3586DE" transform="translate(39.244075775146484,11.868572235107422)"/>
<path d="M0 0 C0.68853058 -0.00700928 1.37706116 -0.01401855 2.0864563 -0.02124023 C4.35395122 -0.03878811 6.6201885 -0.02720507 8.88769531 -0.01367188 C10.47324867 -0.01636898 12.05880042 -0.02025322 13.64434814 -0.02526855 C16.96650957 -0.03116027 20.2882403 -0.02261624 23.61035156 -0.00390625 C27.84818481 0.0188091 32.08500049 0.00580615 36.32279587 -0.01819611 C39.59844469 -0.03272705 42.87385685 -0.02801368 46.14951324 -0.01768494 C47.71066663 -0.01503385 49.27184216 -0.01822991 50.83296967 -0.02760315 C61.60603062 -0.07806789 70.83060705 0.61479953 78.96582031 8.51757812 C84.40383441 15.3539387 85.26906102 22.5840311 85.22651672 31.00509644 C85.23034227 31.82158665 85.23416782 32.63807686 85.23810929 33.4793092 C85.24836725 36.19509465 85.24446093 38.91066582 85.24047852 41.62646484 C85.24482898 43.58183995 85.25001325 45.53721335 85.25596619 47.49258423 C85.26933149 52.79015293 85.26993759 58.08765018 85.26740289 63.38523245 C85.26633148 67.81355203 85.27122089 72.24185726 85.27600831 76.67017376 C85.287095 87.12045885 85.28754563 97.57070798 85.28149414 108.02099609 C85.27545454 118.7887288 85.28776699 129.55633083 85.30906421 140.32404125 C85.32669803 149.58119089 85.33267875 158.83829901 85.32942647 168.09546483 C85.32761629 173.61888441 85.33022337 179.14221076 85.34414101 184.66561508 C85.35674364 189.86133203 85.35475215 195.05684573 85.34173012 200.25255966 C85.33937009 202.15440948 85.34207838 204.05627371 85.35035324 205.95810699 C85.44665614 229.82075128 85.44665614 229.82075128 77.64550781 238.04882812 C72.31663841 242.70849067 66.88997152 244.57267082 59.90332031 244.76367188 C58.94167969 244.79654297 57.98003906 244.82941406 56.98925781 244.86328125 C54.97374753 244.92447568 52.95811498 244.98176799 50.94238281 245.03515625 C49.98074219 245.06931641 49.01910156 245.10347656 48.02832031 245.13867188 C47.15304687 245.16372803 46.27777344 245.18878418 45.37597656 245.21459961 C42.7470537 245.54507907 41.15811628 246.03109019 38.96582031 247.51757812 C36.37105815 251.23291639 36.69379237 255.23737441 36.72631836 259.58740234 C36.7243042 260.39764862 36.72229004 261.2078949 36.72021484 262.04269409 C36.71667327 263.79964736 36.71743159 265.55661338 36.72199059 267.3135643 C36.72758779 270.09649071 36.71841844 272.87900094 36.70478821 275.66189575 C36.66767675 283.57328135 36.64911993 291.48452588 36.66040039 299.39599609 C36.66625731 304.23782572 36.64796262 309.07906991 36.61451149 313.92078018 C36.60656552 315.76350392 36.60782359 317.60629158 36.618536 319.44900131 C36.6328921 322.02963457 36.61656372 324.60843244 36.59350586 327.18896484 C36.60527359 327.94657104 36.61704132 328.70417725 36.62916565 329.48474121 C36.56130096 333.36736222 36.01299143 335.95106813 33.64143372 338.97171021 C30.303525 342.14775751 28.54241128 342.59786919 23.96582031 342.51757812 C19.29820861 340.61434073 16.45778358 338.28784467 13.15332031 334.51757812 C11.85394531 333.04224609 11.85394531 333.04224609 10.52832031 331.53710938 C8.19645997 328.78935321 5.91464193 326.01094594 3.65332031 323.20507812 C-0.98238335 317.45779366 -5.99185869 312.10789378 -11.03808594 306.72460938 C-15.41534683 302.05364492 -19.58560858 297.22010272 -23.73339844 292.34570312 C-29.56436182 285.50239333 -35.48826303 278.77774595 -41.58886719 272.17382812 C-45.84655712 267.54886143 -49.95720199 262.81031555 -53.98730469 257.98632812 C-54.51912354 257.35452637 -55.05094238 256.72272461 -55.59887695 256.07177734 C-56.66243626 254.80741062 -57.72044173 253.53834649 -58.7722168 252.26416016 C-59.26471924 251.68005371 -59.75722168 251.09594727 -60.26464844 250.49414062 C-60.70188232 249.96900879 -61.13911621 249.44387695 -61.58959961 248.90283203 C-65.32818275 245.31778543 -68.89863551 245.26884817 -73.93972778 245.27275085 C-74.63437728 245.27048628 -75.32902677 245.26822171 -76.04472625 245.26588851 C-78.37219576 245.26059197 -80.69939918 245.26942422 -83.02685547 245.27807617 C-84.69592881 245.27696325 -86.36500174 245.27490538 -88.03407288 245.27197266 C-91.62938743 245.26724867 -95.22463669 245.26837256 -98.8199501 245.2737484 C-104.51070106 245.28135645 -110.20132618 245.27070349 -115.89205933 245.25654602 C-132.07485418 245.21880481 -148.2575928 245.20060015 -164.44042969 245.2121582 C-173.37748421 245.21838396 -182.31433603 245.20674423 -191.25134075 245.17571288 C-196.90207072 245.15709804 -202.55222485 245.1603402 -208.20294499 245.1798805 C-211.72929552 245.18678786 -215.25533752 245.17275428 -218.78162956 245.15293121 C-220.40933701 245.14790585 -222.03709724 245.15131188 -223.6647625 245.16406441 C-233.59759995 245.23631425 -242.12337279 244.75794608 -249.92622662 237.84013844 C-256.76383115 230.88260235 -257.49622084 221.9029381 -257.46777344 212.60351562 C-257.47301529 211.58963776 -257.47825714 210.57575989 -257.48365784 209.53115845 C-257.4900442 207.40164094 -257.48878529 205.272088 -257.48022461 203.14257812 C-257.47168486 199.89454379 -257.50057242 196.64825309 -257.53222656 193.40039062 C-257.53383816 191.32226615 -257.53326183 189.24413858 -257.53027344 187.16601562 C-257.54150742 186.20231049 -257.55274139 185.23860535 -257.5643158 184.24569702 C-257.4829683 176.34245836 -255.31342287 171.52658642 -249.75683594 165.76367188 C-248.86254883 164.82297852 -248.86254883 164.82297852 -247.95019531 163.86328125 C-247.33853516 163.23357422 -246.726875 162.60386719 -246.09667969 161.95507812 C-244.8777092 160.68440157 -243.66023712 159.41228573 -242.44433594 158.13867188 C-241.86184082 157.5313623 -241.2793457 156.92405273 -240.67919922 156.29833984 C-239.15064026 154.64364869 -237.74196767 152.94184274 -236.34277344 151.17773438 C-233.42913423 147.82039376 -231.64445391 146.65978609 -227.19722366 146.26703835 C-226.09341732 146.26670286 -224.98961098 146.26636738 -223.85235596 146.26602173 C-221.94774345 146.25794746 -221.94774345 146.25794746 -220.00465393 146.24971008 C-218.59945635 146.25372443 -217.1942592 146.25789535 -215.7890625 146.26220703 C-214.30706083 146.2594564 -212.82506063 146.25577606 -211.34306335 146.25123596 C-208.15046447 146.24312318 -204.95793564 146.24095586 -201.76532745 146.24318314 C-196.70301118 146.24602107 -191.64083398 146.2316425 -186.57855225 146.21420288 C-172.18243533 146.16723383 -157.78632684 146.14326727 -143.39013672 146.13671875 C-135.43966872 146.13294961 -127.48935732 146.11476604 -119.5389564 146.08162439 C-114.52219626 146.06156178 -109.50584427 146.05896619 -104.48906088 146.06990457 C-101.34266053 146.07254064 -98.19648995 146.05836701 -95.05014992 146.03982353 C-93.60879931 146.03456967 -92.16740452 146.03587907 -90.72607231 146.04485893 C-71.117276 146.15700493 -52.89293922 140.76062788 -38.03417969 127.51757812 C-37.36 126.93621094 -36.68582031 126.35484375 -35.99121094 125.75585938 C-23.91458546 114.61359564 -15.72931589 97.27408616 -14.83425903 80.84881592 C-14.73724476 77.1759782 -14.71073458 73.50313694 -14.69865417 69.82913971 C-14.69028404 67.36533095 -14.66970995 64.90187866 -14.64611816 62.43817139 C-14.5900426 56.32667633 -14.55447825 50.21509504 -14.51849365 44.10345459 C-14.48721208 38.92058535 -14.44801811 33.73789376 -14.39823914 28.55516815 C-14.37823605 26.13280319 -14.36986802 23.71057709 -14.36193848 21.28814697 C-14.34896502 19.80114232 -14.33544455 18.31414231 -14.32128906 16.82714844 C-14.3139978 15.5330304 -14.30670654 14.23891235 -14.29919434 12.90557861 C-13.92973132 8.18228921 -13.14249962 5.67397014 -9.84881592 2.23742676 C-6.32898426 0.08667719 -4.11142323 0.01054468 0 0 Z " fill="#5720D4" transform="translate(415.0341796875,157.482421875)"/>
</svg>
